<?xml version="1.0" encoding="UTF-8"?>
<svg id="_レイヤー_2" data-name="レイヤー 2" xmlns="http://www.w3.org/2000/svg" viewBox="0 0 419.29 113.08">
  <g id="_レイヤー_1-2" data-name="レイヤー 1">
    <g>
      <path d="M95.1,66.11h3.8v32.58h14.36v3.46h-18.15v-36.04Z" fill="#f5ae16"/>
      <path d="M117.52,84.28c0-3.48.87-6.69,2.6-9.64,1.73-2.94,4.11-5.25,7.13-6.93,3.02-1.67,6.3-2.51,9.86-2.51s6.87.83,9.93,2.48c3.07,1.66,5.48,3.95,7.23,6.88,1.75,2.93,2.63,6.11,2.63,9.54s-.87,6.61-2.6,9.54c-1.73,2.93-4.12,5.23-7.15,6.9-3.03,1.67-6.33,2.51-9.88,2.51s-6.86-.83-9.91-2.48c-3.05-1.66-5.45-3.94-7.2-6.85-1.75-2.91-2.63-6.06-2.63-9.44ZM152.99,84.13c0-4.32-1.55-7.96-4.66-10.94-3.1-2.98-6.84-4.47-11.21-4.47s-8.21,1.5-11.21,4.49c-3,3-4.5,6.64-4.5,10.94s1.54,7.94,4.63,10.92c3.09,2.98,6.81,4.47,11.18,4.47s8.09-1.46,11.16-4.37c3.07-2.91,4.6-6.59,4.6-11.04Z" fill="#f5ae16"/>
      <path d="M199.12,72.79l-2.91,2.16c-3.47-4.15-7.92-6.22-13.37-6.22-4.44,0-8.26,1.51-11.47,4.52-3.21,3.01-4.81,6.7-4.81,11.07s1.57,8.02,4.71,10.94c3.14,2.93,7.06,4.39,11.78,4.39,5.27,0,9.66-1.97,13.16-5.92l2.91,2.16c-1.84,2.34-4.16,4.12-6.97,5.35-2.81,1.22-5.91,1.83-9.31,1.83-5.93,0-10.78-1.81-14.56-5.42-3.78-3.61-5.67-8.18-5.67-13.7,0-3.41.88-6.57,2.63-9.46,1.75-2.89,4.18-5.16,7.28-6.8,3.1-1.64,6.44-2.46,10.01-2.46s6.78.65,9.62,1.96,5.17,3.18,6.97,5.62Z" fill="#f5ae16"/>
      <path d="M205,84.28c0-3.48.87-6.69,2.6-9.64,1.73-2.94,4.11-5.25,7.13-6.93,3.02-1.67,6.3-2.51,9.86-2.51s6.87.83,9.93,2.48c3.07,1.66,5.48,3.95,7.23,6.88,1.75,2.93,2.63,6.11,2.63,9.54s-.87,6.61-2.6,9.54c-1.73,2.93-4.12,5.23-7.15,6.9-3.03,1.67-6.33,2.51-9.88,2.51s-6.86-.83-9.91-2.48c-3.05-1.66-5.45-3.94-7.2-6.85-1.75-2.91-2.63-6.06-2.63-9.44ZM240.47,84.13c0-4.32-1.55-7.96-4.66-10.94-3.1-2.98-6.84-4.47-11.21-4.47s-8.21,1.5-11.21,4.49c-3,3-4.5,6.64-4.5,10.94s1.54,7.94,4.63,10.92c3.09,2.98,6.81,4.47,11.18,4.47s8.09-1.46,11.16-4.37c3.07-2.91,4.6-6.59,4.6-11.04Z" fill="#f5ae16"/>
      <path d="M250.2,84.28c0-3.48.87-6.69,2.6-9.64,1.73-2.94,4.11-5.25,7.13-6.93,3.02-1.67,6.3-2.51,9.86-2.51s6.87.83,9.93,2.48c3.07,1.66,5.48,3.95,7.23,6.88,1.75,2.93,2.63,6.11,2.63,9.54s-.87,6.61-2.6,9.54c-1.73,2.93-4.12,5.23-7.15,6.9-3.03,1.67-6.33,2.51-9.88,2.51s-6.86-.83-9.91-2.48c-3.05-1.66-5.45-3.94-7.2-6.85-1.75-2.91-2.63-6.06-2.63-9.44ZM285.67,84.13c0-4.32-1.55-7.96-4.66-10.94-3.1-2.98-6.84-4.47-11.21-4.47s-8.21,1.5-11.21,4.49c-3,3-4.5,6.64-4.5,10.94s1.54,7.94,4.63,10.92c3.09,2.98,6.81,4.47,11.18,4.47s8.09-1.46,11.16-4.37c3.07-2.91,4.6-6.59,4.6-11.04Z" fill="#f5ae16"/>
      <path d="M297.22,66.11h7.44c4.16,0,7,.18,8.53.53,1.53.35,2.83.93,3.93,1.73s1.95,1.84,2.57,3.11c.62,1.27.94,2.68.94,4.22,0,3.08-1.13,5.5-3.38,7.25-2.25,1.76-5.44,2.57-9.57,2.43l13.47,16.77h-4.63l-13.42-16.77h-2.13v16.77h-3.75v-36.04ZM300.96,69.63v12.25h6.45c3.19.03,5.54-.44,7.05-1.43,1.51-.99,2.26-2.55,2.26-4.69s-.75-3.7-2.24-4.67c-1.49-.97-3.8-1.46-6.92-1.46h-6.61Z" fill="#f5ae16"/>
      <path d="M328.58,102.15v-36.04h7.75c5.31,0,9.2.38,11.68,1.13,2.48.75,4.62,1.94,6.42,3.56,1.8,1.62,3.19,3.61,4.16,5.95.97,2.34,1.46,5.08,1.46,8.21s-.75,6.07-2.26,8.83c-1.51,2.76-3.55,4.84-6.14,6.25-2.58,1.41-6.3,2.11-11.16,2.11h-11.91ZM332.17,98.74h4.32c4.51,0,7.78-.22,9.8-.65,2.03-.43,3.81-1.3,5.33-2.58,1.53-1.29,2.69-2.85,3.48-4.69.8-1.84,1.2-3.95,1.2-6.33s-.46-4.57-1.38-6.58c-.92-2.01-2.23-3.66-3.93-4.97-1.7-1.31-3.7-2.18-6.01-2.64-2.31-.45-5.7-.68-10.17-.68h-2.65v29.12Z" fill="#f5ae16"/>
      <path d="M367.33,66.11h21.43v3.56h-17.68v11.24h17.53v3.51h-17.53v14.16h17.53v3.56h-21.27v-36.04Z" fill="#f5ae16"/>
      <path d="M395.36,66.11h7.44c4.16,0,7,.18,8.53.53,1.53.35,2.83.93,3.93,1.73s1.95,1.84,2.57,3.11c.62,1.27.94,2.68.94,4.22,0,3.08-1.13,5.5-3.38,7.25-2.25,1.76-5.44,2.57-9.57,2.43l13.47,16.77h-4.63l-13.42-16.77h-2.13v16.77h-3.75v-36.04ZM399.11,69.63v12.25h6.45c3.19.03,5.54-.44,7.05-1.43,1.51-.99,2.26-2.55,2.26-4.69s-.75-3.7-2.24-4.67c-1.49-.97-3.8-1.46-6.92-1.46h-6.61Z" fill="#f5ae16"/>
    </g>
    <g>
      <g id="E66wjT.tif">
        <path d="M67.56,113.02c-.78.07-2.05.07-2.83,0-4.1-.36-10.79-4.15-14.12-6.38-.15-.1-.33-.16-.51-.16l-39.89-.03c-.09,0-.17-.01-.26-.03C-.31,103.65-.07,95.4.02,86.52.28,61.62-.03,36.83.01,11.93.02,6.2,3.54.34,11.51.07c.01,0,.03,0,.04,0L63.33,0s.06,0,.09,0c6.1.45,10.95,4.71,12.01,10.73,0,.06.01.11.02.17.32,22.7.5,44.62,1.14,67.25,0,.23.92,1.43,1.08,1.6,10.49,11.06,5.22,31.88-10.12,33.27ZM19.85,7.05c-.81,0-7.39-.15-9.29.16-1.35.22-2.98,1.54-2.97,4.92,0,.03,0,.05,0,.08v76.77c0,.1.04.19.11.25l.14.14c.07.07.16.11.25.11h38.06c.19,0,1.43-1.31,1.01-1.85-.02-.03-.05-.06-.06-.1-2.29-5.99-10.16-15.62-1.85-20.19,1.65-.91,5.28-.72,6.91.32,2.13,1.37,3.28,5.2,4.07,7.49.56,1.63.13-.28,2.53-.19,1.18.04,2.32,1.14,2.8,1.76.37.49.4-1.26,2.1-1.68.87-.21,1.61.02,2.78.38.4.12.84-.03,1.06-.38h0c.61-.95.91-1.66.91-2.79l.03-59.54c0-.05,0-.1,0-.15-.15-1.04-.96-2.48-1.64-3.23-.28-.31-2.54-2.01-2.71-2.01M71.49,80.3c-1.25-1.03-1.73-1.66-2.65-1.24-.49.23-.82,1.55-1.03,1.67-.13.07-.26.08-.26.08-.07,0-.16.01-.34-.16-.42-.42-.69-1.11-.9-1.44-.74-1.18-2.29-.77-2.75-.04-.55.75.53,2.13-1.13,2.75-1.16.44-1.46-1.19-1.82-1.97-.46-.99-1.23-2.45-2.71-2.03-.04.01-.86.44-.79,1.98.08,1.68,1.82,3.75-.91,4.38-.2.05-.42.02-.61-.08-.52-.27-.67-.67-.76-1.05-.02-.08-.44-1.21-.53-1.43-1.06-2.57-2.29-5.83-3.7-8.41-.56-1.02-.71-1.91-2.03-2.01-1.22-.1-2.34,1.14-2.34,1.99,0,1.12.48,2.33,1.3,4.15,1.47,3.24,2.58,6.55,4.05,9.88.28.63,1.07,1.8,1.25,2.34.34,1.01-.14,2.33-1.02,2.9-.66.43-2.07.55-2.5.13-.08-.08-2.15-1.5-3.07,1.16-.86,2.48,3.12,4.74,4.85,6.25,1.68,1.46,4.79,3.24,6.87,4.09,5.99,2.45,13.4.14,16.51-5.83,2.13-4.07,1.14-9.85,1.01-10.61-.04-.24-.09-.54-.19-.93-.4-1.66-.95-2.69-.95-2.69-.13-.24-.24-.42-.43-.71-1.35-2.12-1.9-2.66-2.46-3.12ZM36.77,94.73c-2.69.55-3.54,4.25-1.56,6.18,3.09,3.03,7.26.12,5.99-3.72-.65-1.97-2.27-2.9-4.43-2.46Z" fill="#f5ae16"/>
      </g>
      <g>
        <path d="M54.23,20.56l-2.34,9.05H15.32l6.8,23.61h23.67l-.85,3.31h-21.16v3.48h23.86l9.28-35.97h6.31v-3.48h-9.01ZM42.35,49.74v-6.67h6.07l-1.72,6.67h-4.35ZM50.99,33.09l-1.68,6.5h-6.97v-6.5h8.64ZM38.87,43.06v6.67h-6.87v-6.67h6.87ZM38.87,33.09v6.5h-6.87v-6.5h6.87ZM28.52,33.09v6.5h-6.7l-1.87-6.5h8.57ZM28.52,43.06v6.67h-3.77l-1.92-6.67h5.69Z" fill="#f5ae16"/>
        <path d="M27.54,61.49c-2.92-.26-5.35,2.17-5.09,5.09.2,2.24,2,4.04,4.24,4.24,2.92.26,5.35-2.17,5.09-5.09-.2-2.24-2-4.04-4.24-4.23ZM27.27,67.34c-.78.1-1.45-.56-1.35-1.35.07-.53.5-.97,1.03-1.03.78-.1,1.45.56,1.35,1.35-.07.53-.5.97-1.03,1.03Z" fill="#f5ae16"/>
        <path d="M44.01,61.69c-2.92-.26-5.35,2.17-5.09,5.09.2,2.24,2,4.04,4.23,4.24,2.92.26,5.35-2.17,5.09-5.09-.2-2.24-2-4.04-4.24-4.23ZM43.73,67.54c-.78.1-1.44-.56-1.35-1.35.07-.53.5-.97,1.03-1.03.79-.1,1.45.56,1.35,1.35-.07.53-.5.97-1.04,1.03Z" fill="#f5ae16"/>
      </g>
    </g>
  </g>
</svg>